<svg width="20" height="12" fill="none" xmlns="http://www.w3.org/2000/svg"><path d="M19.894 10.6a1.385 1.385 0 0 0-.068-.13c-.347-.625-1.01-1.392-1.989-2.302l-.02-.02-.01-.01-.011-.011h-.01c-.445-.424-.726-.708-.844-.854-.216-.278-.264-.559-.146-.844.083-.215.396-.67.937-1.364.285-.368.51-.663.677-.885 1.2-1.597 1.722-2.617 1.562-3.061l-.062-.104c-.042-.063-.15-.12-.323-.172-.174-.052-.396-.06-.666-.026l-3 .02a.389.389 0 0 0-.208.006l-.135.031-.052.026-.042.032a.462.462 0 0 0-.114.109.713.713 0 0 0-.104.182c-.327.84-.698 1.621-1.114 2.343-.257.43-.493.804-.709 1.12a5.38 5.38 0 0 1-.541.697c-.146.15-.278.269-.396.36-.118.09-.208.128-.27.114a7.733 7.733 0 0 1-.178-.042.693.693 0 0 1-.234-.255 1.145 1.145 0 0 1-.12-.406 4.48 4.48 0 0 1-.036-.422 8.705 8.705 0 0 1 .005-.5c.007-.215.01-.36.01-.437 0-.264.006-.55.016-.86l.026-.733c.007-.18.01-.372.01-.573 0-.201-.012-.36-.036-.474a1.62 1.62 0 0 0-.109-.333.561.561 0 0 0-.213-.25 1.203 1.203 0 0 0-.35-.14c-.367-.085-.835-.13-1.404-.137C8.33.282 7.5.366 7.133.546c-.146.076-.278.18-.396.312-.125.153-.142.237-.052.25.417.063.712.212.885.448l.063.125c.049.09.097.25.146.48.048.228.08.482.093.76.035.506.035.94 0 1.3a15.5 15.5 0 0 1-.099.844 1.689 1.689 0 0 1-.265.719.18.18 0 0 1-.052.052.78.78 0 0 1-.281.052c-.098 0-.216-.049-.354-.146a2.498 2.498 0 0 1-.432-.4 5.36 5.36 0 0 1-.506-.714A12.448 12.448 0 0 1 5.3 3.545l-.166-.302a25.97 25.97 0 0 1-.427-.849c-.18-.371-.34-.73-.48-1.078a.686.686 0 0 0-.249-.333L3.926.952a.713.713 0 0 0-.167-.089 1.105 1.105 0 0 0-.24-.067L.668.816c-.292 0-.49.066-.594.198l-.042.063A.337.337 0 0 0 0 1.243c0 .077.02.17.063.282.416.979.869 1.923 1.358 2.832.49.91.915 1.642 1.276 2.197.36.555.729 1.08 1.104 1.572.375.493.623.81.744.948.122.139.217.243.287.312l.26.25c.167.167.411.367.734.599.323.233.68.462 1.073.688.392.225.848.409 1.37.551a4.7 4.7 0 0 0 1.52.172h1.197c.243-.02.427-.097.552-.229l.041-.052a.687.687 0 0 0 .078-.193c.025-.086.037-.182.037-.286a3.434 3.434 0 0 1 .067-.807c.052-.24.111-.42.178-.541a1.329 1.329 0 0 1 .4-.458.682.682 0 0 1 .084-.037c.166-.055.362-.002.588.162.226.163.438.364.636.604.197.24.435.508.713.807.277.298.52.52.729.666l.208.125c.139.083.32.16.541.23.222.069.417.086.584.051l2.665-.041c.264 0 .469-.044.614-.13.146-.087.233-.183.26-.287a.808.808 0 0 0 .006-.354 1.306 1.306 0 0 0-.073-.276Z" fill="#fff"/></svg>